<svg  xmlns="http://www.w3.org/2000/svg" width="350.2955608805914" height="353.88281249999994"    viewBox="0 0 200 202.04812850633377" class="looka-1j8o68f"><defs id="SvgjsDefs1463"></defs><g id="SvgjsG1464" featurekey="ECw45b-0" transform="matrix(1.2838430663663862,0,0,1.2838430663663862,35.12030274216839,-3.9439659341598468)" fill="#323748"><path xmlns="http://www.w3.org/2000/svg" d="M73.854,7.813V3.072l-42.788,8.963c-12.435-1.057-11.678,9.918-11.678,9.918v44.843  c0.139,11.492,11.678,10.379,11.678,10.379l3.992,0.904v19.506l5.559-6.844l5.468,6.852v-17.01l27.769,6.303V81.32h7.838V7.813  H73.854z M44.777,93.578l-4.175-5.49l-4.245,5.49V78.377l8.42,1.91V93.578z M72.461,84.754l-40.608-9.223  c0,0-10.833,1.508-10.833-10.025V23.123c0,0-0.729-11.253,10.833-9.414l40.608-8.503V84.754z M80.355,79.982h-6.502v-2.066h3.516  V11.247h-3.516V9.161h6.502V79.982z"></path><path xmlns="http://www.w3.org/2000/svg" d="M30.46,17.136c0-0.297-0.241-0.538-0.538-0.538c-0.297,0-0.538,0.241-0.538,0.538h-0.002v56.116h0.002  c0,0.297,0.241,0.539,0.538,0.539c0.297,0,0.538-0.242,0.538-0.539h0.001V17.136H30.46z"></path></g><g id="SvgjsG1465" featurekey="6sJQsk-0" transform="matrix(3.4821365890871205,0,0,3.4821365890871205,-3.969631925819694,132.4053900829429)" fill="#393e46"><path d="M13.98 12.719999999999999 l-1.22 1.06 l0 6.22 l-2.14 0 l-6.12 -10.86 l0 10.86 l-2.14 0 l0 -6.22 l-1.22 -1.06 l1.22 -1.08 l0 -6.3 l2.26 0 l6 10.56 l0 -10.56 l2.14 0 l0 6.3 z M30.832 12.719999999999999 l-1.22 1.06 l0 3.78 l-2.74 2.44 l-5.2 0 l-2.76 -2.44 l0 -3.78 l-1.22 -1.06 l1.22 -1.08 l0 -3.86 l2.76 -2.44 l5.2 0 l2.74 2.44 l0 3.86 z M27.472 16.56 l0 -7.76 l-1.52 -1.32 l-3.36 0 l-1.52 1.32 l0 7.76 l1.52 1.3 l3.36 0 z M44.784 7.48 l-4.26 0 l0 4.18 l1.22 1.06 l-1.22 1.06 l0 6.22 l-2.14 0 l0 -6.22 l-1.22 -1.06 l1.22 -1.06 l0 -4.18 l-4.28 0 l0 -2.14 l10.68 0 l0 2.14 z M58.57599999999999 20 l-10.38 0 l0 -2.14 l7.7 -10.38 l-7.7 0 l0 -2.14 l10.38 0 l0 2.14 l-7.64 10.38 l7.64 0 l0 2.14 z"></path></g></svg>